<?xml version="1.0" encoding="utf-8"?>
<!-- Generator: Adobe Illustrator 25.1.0, SVG Export Plug-In . SVG Version: 6.00 Build 0)  -->
<svg version="1.1" id="Layer_1" xmlns="http://www.w3.org/2000/svg" xmlns:xlink="http://www.w3.org/1999/xlink" x="0px" y="0px"
	 viewBox="0 0 593.38 600.58" style="enable-background:new 0 0 593.38 600.58;" xml:space="preserve">
<style type="text/css">
	.st0{fill:url(#SVGID_1_);}
	.st1{fill:url(#SVGID_2_);}
	.st2{fill:#87938D;}
	.st3{fill:#E5E9DD;}
	.st4{fill:#FEFEFE;}
	.st5{fill:url(#SVGID_3_);}
	.st6{fill:url(#SVGID_4_);}
	.st7{fill:url(#SVGID_5_);}
	.st8{fill:url(#SVGID_6_);}
	.st9{fill:url(#SVGID_7_);}
	.st10{fill:#5E6964;}
</style>
<linearGradient id="SVGID_1_" gradientUnits="userSpaceOnUse" x1="369.3192" y1="165.6668" x2="581.6658" y2="165.6668">
	<stop  offset="0" style="stop-color:#D8E7F8"/>
	<stop  offset="0.0638" style="stop-color:#CFE3F6"/>
	<stop  offset="0.1699" style="stop-color:#B5D8F1"/>
	<stop  offset="0.3053" style="stop-color:#8CC6EA"/>
	<stop  offset="0.4629" style="stop-color:#53AEDF"/>
	<stop  offset="0.5674" style="stop-color:#299CD7"/>
	<stop  offset="0.8652" style="stop-color:#006DB7"/>
	<stop  offset="0.9944" style="stop-color:#005894"/>
</linearGradient>
<path class="st0" d="M369.32,27.36c122.03,28.24,216.74,151.8,212.19,276.62c-11.04-16.65-22.81-33.1-37.04-47.07l0.09,0.03
	c-40.47-46.33-93.36-81.74-151.83-101.49c38.16-6.63,60.06-53.06,27.29-82.79C403.74,56.99,384.68,43.73,369.32,27.36z"/>
<linearGradient id="SVGID_2_" gradientUnits="userSpaceOnUse" x1="8.4453" y1="439.6896" x2="453.0187" y2="439.6896">
	<stop  offset="0" style="stop-color:#D8E7F8"/>
	<stop  offset="0.0638" style="stop-color:#CFE3F6"/>
	<stop  offset="0.1699" style="stop-color:#B5D8F1"/>
	<stop  offset="0.3053" style="stop-color:#8CC6EA"/>
	<stop  offset="0.4629" style="stop-color:#53AEDF"/>
	<stop  offset="0.5674" style="stop-color:#299CD7"/>
	<stop  offset="0.8652" style="stop-color:#006DB7"/>
	<stop  offset="0.9944" style="stop-color:#005894"/>
</linearGradient>
<path class="st1" d="M451.56,338.99c-10.91,48.81-45.79,89.34-91.09,109.88c0.29,1.28,0.43,2.54,0.43,3.76
	c0-1.22-0.14-2.47-0.43-3.76c-22.96,9.67-46.97,15.26-72.01,13.22c-0.02,0.56-0.03,1.13-0.05,1.69c0,0,0,0,0,0
	c-22.92,1.46-45.87,1.37-68.82,1.04c0,0,0,0,0,0c-21.1-1.89-42.24-3.47-63.03-7.87l0,0C68.18,439.62,4.88,385.08,10.2,289.84
	c-1.9,0.7-1.49,2.35-1.57,3.8c-1.32,34.67,4.38,69.1,15.14,102.03C58.57,503.13,162.7,583.43,275.5,588.92
	c0.33-0.26,0.67-0.47,1.02-0.63c-0.35,0.16-0.69,0.37-1.02,0.63c7.42-0.71,16.06,2.51,22.73-1.21
	c10.79-11.1,23.24-19.51,33.57-30.77c60-58.48,109.87-133.74,121.22-218.16C452.53,338.85,452.05,338.92,451.56,338.99z
	 M150.17,457.79c0.37,0.11,0.73,0.23,1.1,0.35C150.91,458.02,150.54,457.9,150.17,457.79z M217.49,473.06
	c0.67-1.1,1.37-2.21,1.84-3.39C218.86,470.86,218.16,471.97,217.49,473.06z M277.57,587.93c0.53-0.12,1.08-0.17,1.62-0.17
	C278.65,587.76,278.1,587.81,277.57,587.93z"/>
<path class="st2" d="M370.8,29.75c-3.07,0.65-4.34-0.77-4.28-3.72c0.93,0.44,1.87,0.89,2.8,1.33
	C369.81,28.15,370.31,28.95,370.8,29.75z"/>
<path class="st3" d="M10.68,277.97c1.11,1.05,1.12,2.06-0.14,3C9.33,279.91,9.34,278.91,10.68,277.97z"/>
<path class="st4" d="M350.83,141.85c-9.79,8.45-40.79,7.58-41.38-8.04c0.19-4.36,3.36-6.48,6.82-7.73
	C326.89,120.84,360.06,124.91,350.83,141.85z"/>
<path class="st2" d="M360.52,161.12c-0.59,0.67-1.31,0.8-2.13,0.51C358.84,160.36,359.43,159.72,360.52,161.12z"/>
<path class="st2" d="M453.66,327.11c1.31,3.52,2.01,10.72-2.09,11.88"/>
<path class="st2" d="M578.04,337.23c-0.44-0.07-0.35-0.24-0.21-0.55C578.26,336.75,578.17,336.92,578.04,337.23z"/>
<g>
	<linearGradient id="SVGID_3_" gradientUnits="userSpaceOnUse" x1="10.1758" y1="298.0826" x2="581.5062" y2="298.0826">
		<stop  offset="0" style="stop-color:#00A0DB"/>
		<stop  offset="0.2" style="stop-color:#362983"/>
		<stop  offset="0.4" style="stop-color:#E4007D"/>
		<stop  offset="0.6" style="stop-color:#E31F21"/>
		<stop  offset="0.8" style="stop-color:#FFE900"/>
		<stop  offset="1" style="stop-color:#009447"/>
	</linearGradient>
	<path class="st5" d="M453.01,338.78c-3.49,29.49-12.86,57.89-24.8,85.01c0.12,0.05,0.23,0.13,0.34,0.2
		c-0.11-0.07-0.22-0.15-0.34-0.2c-29.44,63.91-75.97,117.61-128.94,163.03c-0.5,0.43-0.37,1.23,0.23,1.49
		c6.97,2.98,14.49,0.92,21.57,1.11c9.92,0.27,20.04-1.9,29.88-3.98c73.61-15.2,143.95-58.78,183.49-123.54c0,0,0,0,0,0
		c31.37-46.03,46.57-102.02,47.07-157.65c0-0.18-0.05-0.36-0.15-0.51c-9.82-14.5-19.57-29.23-32.12-41.56
		c-0.15-0.15-4.71-5.24-4.68-5.25c-39.77-45.52-91.52-80.5-148.78-100.44c-0.84-0.29-0.77-1.48,0.09-1.69
		c36.19-8.55,56.01-53.24,24.15-82.15c-16.04-14.5-32.58-28.44-48.9-42.63c-0.2-0.17-0.47-0.24-0.74-0.2
		c-2.77,0.43-3.92-0.98-3.86-3.8C345.14,3.71,309,0.01,282.72,16.21c-0.03,0.02-0.06,0.03-0.09,0.05
		c-4.78,2.32-10.01,1.74-15.04,2.15c-11.84,0.95-23.34,3.7-34.92,6v0C113.65,48.49,20.11,156.97,10.71,277.57
		c-0.02,0.25,0.08,0.5,0.25,0.69c0.74,0.85,0.74,1.67-0.1,2.45c-0.19,0.18-0.32,0.41-0.32,0.67c-0.05,14.3-1.4,29.06,1.44,43.13
		c0.13,0.63,0.88,0.92,1.39,0.54c0.79-0.6,1.63-0.96,2.5-1.16c-1.15,0.27-2.25,0.81-3.26,1.82c-0.19,0.19-0.28,0.48-0.25,0.75
		C28.8,453.52,183.61,471.5,287.62,463.84c0.45-0.03,0.8-0.4,0.82-0.86c0-0.01,0-0.01,0-0.02c0.02-0.48-0.37-0.89-0.85-0.91
		C168.18,457.45,96.5,324.11,157.47,221.61c19.33-33.12,47.28-56.1,83.07-69.61c3.44-1.3,3.13-2.39,0.81-4.61
		c-12.85-11.33-30.31-11.29-46.65-10.18c-1.06,0.07-1.32-1.43-0.31-1.73c18.88-5.7,39.84-7.44,56.46,4.95
		c10.99,8.68,20.09,20.52,34.04,24.7c0.27,0.08,0.57,0.03,0.8-0.14c0.88-0.64,1.56-1.15,2.01-1.58c-0.28,0.27-0.65,0.57-1.11,0.92
		c-0.55,0.42-0.45,1.29,0.19,1.54c23.15,9.2,47.81,0.57,71.13-4.13c0.28-0.06,0.52-0.25,0.63-0.51c0.38-0.87,0.88-1.25,1.67-0.44
		c0.21,0.21,0.51,0.3,0.8,0.24c22.51-4.38,60.53,40.25,71.5,57.96c0.23-0.18,0.47-0.33,0.71-0.45c-0.24,0.12-0.47,0.27-0.71,0.45
		c13.31,22.89,21.25,48.53,23.01,74.97c0.28-0.2,0.49-0.44,0.64-0.7c-0.1,0.17-0.23,0.34-0.39,0.49c-0.18,0.17-0.25,0.41-0.25,0.66
		c0.19,10.95-0.36,21.87-1.89,32.72"/>
	<linearGradient id="SVGID_4_" gradientUnits="userSpaceOnUse" x1="40.9947" y1="384.0083" x2="42.0894" y2="384.0083">
		<stop  offset="0" style="stop-color:#00A0DB"/>
		<stop  offset="0.2" style="stop-color:#362983"/>
		<stop  offset="0.4" style="stop-color:#E4007D"/>
		<stop  offset="0.6" style="stop-color:#E31F21"/>
		<stop  offset="0.8" style="stop-color:#FFE900"/>
		<stop  offset="1" style="stop-color:#009447"/>
	</linearGradient>
	<path class="st6" d="M41.81,384.57c-0.27-0.12-0.54-0.24-0.82-0.36C41.16,382.84,42.71,383.52,41.81,384.57z"/>
	<linearGradient id="SVGID_5_" gradientUnits="userSpaceOnUse" x1="309.4535" y1="135.4648" x2="352.8668" y2="135.4648">
		<stop  offset="0" style="stop-color:#D8E7F8"/>
		<stop  offset="0.0638" style="stop-color:#CFE3F6"/>
		<stop  offset="0.1699" style="stop-color:#B5D8F1"/>
		<stop  offset="0.3053" style="stop-color:#8CC6EA"/>
		<stop  offset="0.4629" style="stop-color:#53AEDF"/>
		<stop  offset="0.5674" style="stop-color:#299CD7"/>
		<stop  offset="0.8652" style="stop-color:#006DB7"/>
		<stop  offset="0.9944" style="stop-color:#005894"/>
	</linearGradient>
	<path class="st7" d="M349.42,130.18c4.27,4.74,4.35,6.34,1.5,11.51c-0.06,0.1-0.13,0.2-0.22,0.27c-9.89,8.3-40.46,7.41-41.24-8
		c-0.01-0.1,0.01-0.21,0.03-0.31c3.6-14.14,28.65-10.65,38.64-4.73c0.21,0.12,0.45,0.15,0.68,0.09"/>
	<linearGradient id="SVGID_6_" gradientUnits="userSpaceOnUse" x1="428.7268" y1="424.774" x2="430.0366" y2="424.774">
		<stop  offset="0" style="stop-color:#00A0DB"/>
		<stop  offset="0.2" style="stop-color:#362983"/>
		<stop  offset="0.4" style="stop-color:#E4007D"/>
		<stop  offset="0.6" style="stop-color:#E31F21"/>
		<stop  offset="0.8" style="stop-color:#FFE900"/>
		<stop  offset="1" style="stop-color:#009447"/>
	</linearGradient>
	<path class="st8" d="M428.73,424.09c0.48,0.37,0.87,0.91,1.31,1.37C429.6,424.99,429.21,424.46,428.73,424.09z"/>
	<linearGradient id="SVGID_7_" gradientUnits="userSpaceOnUse" x1="577.7145" y1="336.9565" x2="578.1494" y2="336.9565">
		<stop  offset="0" style="stop-color:#00A0DB"/>
		<stop  offset="0.2" style="stop-color:#362983"/>
		<stop  offset="0.4" style="stop-color:#E4007D"/>
		<stop  offset="0.6" style="stop-color:#E31F21"/>
		<stop  offset="0.8" style="stop-color:#FFE900"/>
		<stop  offset="1" style="stop-color:#009447"/>
	</linearGradient>
	<path class="st9" d="M578.04,337.23c-0.44-0.07-0.35-0.24-0.21-0.55C578.26,336.75,578.17,336.92,578.04,337.23z"/>
</g>
<path class="st10" d="M40.99,384.22c0.17-1.38,1.71-0.7,0.82,0.36C41.54,384.46,41.27,384.34,40.99,384.22z"/>
</svg>
