<?xml version="1.0" encoding="utf-8"?>
<!-- Generator: Adobe Illustrator 25.1.0, SVG Export Plug-In . SVG Version: 6.00 Build 0)  -->
<svg version="1.1" id="Layer_1" xmlns="http://www.w3.org/2000/svg" xmlns:xlink="http://www.w3.org/1999/xlink" x="0px" y="0px"
	 viewBox="0 0 2813.26 600.58" style="enable-background:new 0 0 2813.26 600.58;" xml:space="preserve">
<style type="text/css">
	.st0{fill:url(#SVGID_1_);}
	.st1{fill:url(#SVGID_2_);}
	.st2{fill:#87938D;}
	.st3{fill:#E5E9DD;}
	.st4{fill:#FEFEFE;}
	.st5{fill:url(#SVGID_3_);}
	.st6{fill:url(#SVGID_4_);}
	.st7{fill:url(#SVGID_5_);}
	.st8{fill:url(#SVGID_6_);}
	.st9{fill:url(#SVGID_7_);}
	.st10{fill:#5E6964;}
	.st11{fill:#778899;}
</style>
<linearGradient id="SVGID_1_" gradientUnits="userSpaceOnUse" x1="369.3192" y1="165.6668" x2="581.6658" y2="165.6668">
	<stop  offset="0" style="stop-color:#D8E7F8"/>
	<stop  offset="0.0638" style="stop-color:#CFE3F6"/>
	<stop  offset="0.1699" style="stop-color:#B5D8F1"/>
	<stop  offset="0.3053" style="stop-color:#8CC6EA"/>
	<stop  offset="0.4629" style="stop-color:#53AEDF"/>
	<stop  offset="0.5674" style="stop-color:#299CD7"/>
	<stop  offset="0.8652" style="stop-color:#006DB7"/>
	<stop  offset="0.9944" style="stop-color:#005894"/>
</linearGradient>
<path class="st0" d="M369.32,27.36c122.03,28.24,216.74,151.8,212.19,276.62c-11.04-16.65-22.81-33.1-37.04-47.07l0.09,0.03
	c-40.47-46.33-93.36-81.74-151.83-101.49c38.16-6.63,60.06-53.06,27.29-82.79C403.74,56.99,384.68,43.73,369.32,27.36z"/>
<linearGradient id="SVGID_2_" gradientUnits="userSpaceOnUse" x1="8.4453" y1="439.6896" x2="453.0187" y2="439.6896">
	<stop  offset="0" style="stop-color:#D8E7F8"/>
	<stop  offset="0.0638" style="stop-color:#CFE3F6"/>
	<stop  offset="0.1699" style="stop-color:#B5D8F1"/>
	<stop  offset="0.3053" style="stop-color:#8CC6EA"/>
	<stop  offset="0.4629" style="stop-color:#53AEDF"/>
	<stop  offset="0.5674" style="stop-color:#299CD7"/>
	<stop  offset="0.8652" style="stop-color:#006DB7"/>
	<stop  offset="0.9944" style="stop-color:#005894"/>
</linearGradient>
<path class="st1" d="M451.56,338.99c-10.91,48.81-45.79,89.34-91.09,109.88c0.29,1.28,0.43,2.54,0.43,3.76
	c0-1.22-0.14-2.47-0.43-3.76c-22.96,9.67-46.97,15.26-72.01,13.22c-0.02,0.56-0.03,1.13-0.05,1.69c0,0,0,0,0,0
	c-22.92,1.46-45.87,1.37-68.82,1.04c0,0,0,0,0,0c-21.1-1.89-42.24-3.47-63.03-7.87l0,0C68.18,439.62,4.88,385.08,10.2,289.84
	c-1.9,0.7-1.49,2.35-1.57,3.8c-1.32,34.67,4.38,69.1,15.14,102.03C58.57,503.13,162.7,583.43,275.5,588.92
	c0.33-0.26,0.67-0.47,1.02-0.63c-0.35,0.16-0.69,0.37-1.02,0.63c7.42-0.71,16.06,2.51,22.73-1.21
	c10.79-11.1,23.24-19.51,33.57-30.77c60-58.48,109.87-133.74,121.22-218.16C452.53,338.85,452.05,338.92,451.56,338.99z
	 M150.17,457.79c0.37,0.11,0.73,0.23,1.1,0.35C150.91,458.02,150.54,457.9,150.17,457.79z M217.49,473.06
	c0.67-1.1,1.37-2.21,1.84-3.39C218.86,470.86,218.16,471.97,217.49,473.06z M277.57,587.93c0.53-0.12,1.08-0.17,1.62-0.17
	C278.65,587.76,278.1,587.81,277.57,587.93z"/>
<path class="st2" d="M370.8,29.75c-3.07,0.65-4.34-0.77-4.28-3.72c0.93,0.44,1.87,0.89,2.8,1.33
	C369.81,28.15,370.31,28.95,370.8,29.75z"/>
<path class="st3" d="M10.68,277.97c1.11,1.05,1.12,2.06-0.14,3C9.33,279.91,9.34,278.91,10.68,277.97z"/>
<path class="st4" d="M350.83,141.85c-9.79,8.45-40.79,7.58-41.38-8.04c0.19-4.36,3.36-6.48,6.82-7.73
	C326.89,120.84,360.06,124.91,350.83,141.85z"/>
<path class="st2" d="M360.52,161.12c-0.59,0.67-1.31,0.8-2.13,0.51C358.84,160.36,359.43,159.72,360.52,161.12z"/>
<path class="st2" d="M453.66,327.11c1.31,3.52,2.01,10.72-2.09,11.88"/>
<path class="st2" d="M578.04,337.23c-0.44-0.07-0.35-0.24-0.21-0.55C578.26,336.75,578.17,336.92,578.04,337.23z"/>
<g>
	<linearGradient id="SVGID_3_" gradientUnits="userSpaceOnUse" x1="10.1758" y1="298.0826" x2="581.5062" y2="298.0826">
		<stop  offset="0" style="stop-color:#00A0DB"/>
		<stop  offset="0.2" style="stop-color:#362983"/>
		<stop  offset="0.4" style="stop-color:#E4007D"/>
		<stop  offset="0.6" style="stop-color:#E31F21"/>
		<stop  offset="0.8" style="stop-color:#FFE900"/>
		<stop  offset="1" style="stop-color:#009447"/>
	</linearGradient>
	<path class="st5" d="M453.01,338.78c-3.49,29.49-12.86,57.89-24.8,85.01c0.12,0.05,0.23,0.13,0.34,0.2
		c-0.11-0.07-0.22-0.15-0.34-0.2c-29.44,63.91-75.97,117.61-128.94,163.03c-0.5,0.43-0.37,1.23,0.23,1.49
		c6.97,2.98,14.49,0.92,21.57,1.11c9.92,0.27,20.04-1.9,29.88-3.98c73.61-15.2,143.95-58.78,183.49-123.54c0,0,0,0,0,0
		c31.37-46.03,46.57-102.02,47.07-157.65c0-0.18-0.05-0.36-0.15-0.51c-9.82-14.5-19.57-29.23-32.12-41.56
		c-0.15-0.15-4.71-5.24-4.68-5.25c-39.77-45.52-91.52-80.5-148.78-100.44c-0.84-0.29-0.77-1.48,0.09-1.69
		c36.19-8.55,56.01-53.24,24.15-82.15c-16.04-14.5-32.58-28.44-48.9-42.63c-0.2-0.17-0.47-0.24-0.74-0.2
		c-2.77,0.43-3.92-0.98-3.86-3.8C345.14,3.71,309,0.01,282.72,16.21c-0.03,0.02-0.06,0.03-0.09,0.05
		c-4.78,2.32-10.01,1.74-15.04,2.15c-11.84,0.95-23.34,3.7-34.92,6v0C113.65,48.49,20.11,156.97,10.71,277.57
		c-0.02,0.25,0.08,0.5,0.25,0.69c0.74,0.85,0.74,1.67-0.1,2.45c-0.19,0.18-0.32,0.41-0.32,0.67c-0.05,14.3-1.4,29.06,1.44,43.13
		c0.13,0.63,0.88,0.92,1.39,0.54c0.79-0.6,1.63-0.96,2.5-1.16c-1.15,0.27-2.25,0.81-3.26,1.82c-0.19,0.19-0.28,0.48-0.25,0.75
		C28.8,453.52,183.61,471.5,287.62,463.84c0.45-0.03,0.8-0.4,0.82-0.86c0-0.01,0-0.01,0-0.02c0.02-0.48-0.37-0.89-0.85-0.91
		C168.18,457.45,96.5,324.11,157.47,221.61c19.33-33.12,47.28-56.1,83.07-69.61c3.44-1.3,3.13-2.39,0.81-4.61
		c-12.85-11.33-30.31-11.29-46.65-10.18c-1.06,0.07-1.32-1.43-0.31-1.73c18.88-5.7,39.84-7.44,56.46,4.95
		c10.99,8.68,20.09,20.52,34.04,24.7c0.27,0.08,0.57,0.03,0.8-0.14c0.88-0.64,1.56-1.15,2.01-1.58c-0.28,0.27-0.65,0.57-1.11,0.92
		c-0.55,0.42-0.45,1.29,0.19,1.54c23.15,9.2,47.81,0.57,71.13-4.13c0.28-0.06,0.52-0.25,0.63-0.51c0.38-0.87,0.88-1.25,1.67-0.44
		c0.21,0.21,0.51,0.3,0.8,0.24c22.51-4.38,60.53,40.25,71.5,57.96c0.23-0.18,0.47-0.33,0.71-0.45c-0.24,0.12-0.47,0.27-0.71,0.45
		c13.31,22.89,21.25,48.53,23.01,74.97c0.28-0.2,0.49-0.44,0.64-0.7c-0.1,0.17-0.23,0.34-0.39,0.49c-0.18,0.17-0.25,0.41-0.25,0.66
		c0.19,10.95-0.36,21.87-1.89,32.72"/>
	<linearGradient id="SVGID_4_" gradientUnits="userSpaceOnUse" x1="40.9947" y1="384.0083" x2="42.0894" y2="384.0083">
		<stop  offset="0" style="stop-color:#00A0DB"/>
		<stop  offset="0.2" style="stop-color:#362983"/>
		<stop  offset="0.4" style="stop-color:#E4007D"/>
		<stop  offset="0.6" style="stop-color:#E31F21"/>
		<stop  offset="0.8" style="stop-color:#FFE900"/>
		<stop  offset="1" style="stop-color:#009447"/>
	</linearGradient>
	<path class="st6" d="M41.81,384.57c-0.27-0.12-0.54-0.24-0.82-0.36C41.16,382.84,42.71,383.52,41.81,384.57z"/>
	<linearGradient id="SVGID_5_" gradientUnits="userSpaceOnUse" x1="309.4535" y1="135.4648" x2="352.8668" y2="135.4648">
		<stop  offset="0" style="stop-color:#D8E7F8"/>
		<stop  offset="0.0638" style="stop-color:#CFE3F6"/>
		<stop  offset="0.1699" style="stop-color:#B5D8F1"/>
		<stop  offset="0.3053" style="stop-color:#8CC6EA"/>
		<stop  offset="0.4629" style="stop-color:#53AEDF"/>
		<stop  offset="0.5674" style="stop-color:#299CD7"/>
		<stop  offset="0.8652" style="stop-color:#006DB7"/>
		<stop  offset="0.9944" style="stop-color:#005894"/>
	</linearGradient>
	<path class="st7" d="M349.42,130.18c4.27,4.74,4.35,6.34,1.5,11.51c-0.06,0.1-0.13,0.2-0.22,0.27c-9.89,8.3-40.46,7.41-41.24-8
		c-0.01-0.1,0.01-0.21,0.03-0.31c3.6-14.14,28.65-10.65,38.64-4.73c0.21,0.12,0.45,0.15,0.68,0.09"/>
	<linearGradient id="SVGID_6_" gradientUnits="userSpaceOnUse" x1="428.7268" y1="424.774" x2="430.0366" y2="424.774">
		<stop  offset="0" style="stop-color:#00A0DB"/>
		<stop  offset="0.2" style="stop-color:#362983"/>
		<stop  offset="0.4" style="stop-color:#E4007D"/>
		<stop  offset="0.6" style="stop-color:#E31F21"/>
		<stop  offset="0.8" style="stop-color:#FFE900"/>
		<stop  offset="1" style="stop-color:#009447"/>
	</linearGradient>
	<path class="st8" d="M428.73,424.09c0.48,0.37,0.87,0.91,1.31,1.37C429.6,424.99,429.21,424.46,428.73,424.09z"/>
	<linearGradient id="SVGID_7_" gradientUnits="userSpaceOnUse" x1="577.7145" y1="336.9565" x2="578.1494" y2="336.9565">
		<stop  offset="0" style="stop-color:#00A0DB"/>
		<stop  offset="0.2" style="stop-color:#362983"/>
		<stop  offset="0.4" style="stop-color:#E4007D"/>
		<stop  offset="0.6" style="stop-color:#E31F21"/>
		<stop  offset="0.8" style="stop-color:#FFE900"/>
		<stop  offset="1" style="stop-color:#009447"/>
	</linearGradient>
	<path class="st9" d="M578.04,337.23c-0.44-0.07-0.35-0.24-0.21-0.55C578.26,336.75,578.17,336.92,578.04,337.23z"/>
</g>
<path class="st10" d="M40.99,384.22c0.17-1.38,1.71-0.7,0.82,0.36C41.54,384.46,41.27,384.34,40.99,384.22z"/>
<g>
	<path class="st11" d="M708.38,456.84c-4.75,12.02-9.42,22.14-14,30.37c-4.59,8.22-9.66,14.95-15.19,20.17
		c-5.54,5.22-11.71,9.02-18.51,11.39c-6.81,2.37-14.64,3.56-23.49,3.56c-4.75,0-9.49-0.32-14.24-0.95
		c-4.75-0.64-9.34-1.74-13.76-3.32v-37.02c3.48,1.58,7.51,2.92,12.1,4.03c4.58,1.1,8.46,1.66,11.63,1.66
		c8.22,0,15.11-1.98,20.64-5.93c5.53-3.96,9.73-9.57,12.58-16.85l16.61-41.29l-97.29-243.94h45.56l71.66,200.75h0.95l68.82-200.75
		h42.71L708.38,456.84z"/>
	<path class="st11" d="M885.88,178.72v51.73h0.95c9.8-19.93,21.83-34.65,36.07-44.14c14.24-9.49,32.27-13.92,54.1-13.29v42.71
		c-16.14,0-29.9,2.22-41.29,6.64c-11.39,4.43-20.57,10.92-27.53,19.46c-6.96,8.54-12.03,18.91-15.19,31.09
		c-3.17,12.18-4.75,26.18-4.75,42v109.16h-40.34V178.72H885.88z"/>
	<path class="st11" d="M993.14,251.1c5.06-15.66,12.65-29.26,22.78-40.81c10.12-11.55,22.62-20.65,37.49-27.29
		c14.87-6.64,31.95-9.97,51.26-9.97c19.61,0,36.78,3.32,51.49,9.97c14.71,6.64,27.12,15.74,37.25,27.29
		c10.12,11.55,17.72,25.15,22.78,40.81c5.06,15.66,7.59,32.51,7.59,50.54s-2.54,34.81-7.59,50.31
		c-5.06,15.51-12.66,29.03-22.78,40.58c-10.13,11.55-22.54,20.57-37.25,27.05c-14.71,6.48-31.88,9.73-51.49,9.73
		c-19.3,0-36.39-3.25-51.26-9.73c-14.88-6.48-27.37-15.5-37.49-27.05c-10.13-11.55-17.72-25.07-22.78-40.58
		c-5.06-15.5-7.59-32.27-7.59-50.31S988.07,266.76,993.14,251.1z M1034.19,341.27c3.95,11.55,9.41,21.2,16.37,28.95
		c6.96,7.76,15.11,13.69,24.44,17.8c9.33,4.12,19.22,6.17,29.66,6.17c10.44,0,20.33-2.05,29.66-6.17
		c9.33-4.11,17.48-10.04,24.44-17.8c6.96-7.75,12.41-17.4,16.37-28.95c3.95-11.55,5.93-24.75,5.93-39.63
		c0-14.87-1.98-28.08-5.93-39.63c-3.96-11.55-9.42-21.27-16.37-29.19c-6.96-7.91-15.11-13.92-24.44-18.04
		c-9.34-4.11-19.22-6.17-29.66-6.17c-10.44,0-20.33,2.06-29.66,6.17c-9.34,4.12-17.49,10.13-24.44,18.04
		c-6.96,7.91-12.42,17.64-16.37,29.19c-3.96,11.55-5.93,24.76-5.93,39.63C1028.26,316.52,1030.23,329.73,1034.19,341.27z"/>
	<path class="st11" d="M1455.38,493.38c-18.35,19.93-47.15,29.9-86.38,29.9c-11.39,0-23.02-1.27-34.88-3.8
		c-11.86-2.54-22.62-6.64-32.27-12.34c-9.66-5.7-17.64-13.13-23.97-22.31c-6.33-9.18-9.81-20.41-10.44-33.7h40.34
		c0.31,7.27,2.61,13.44,6.88,18.51c4.27,5.06,9.49,9.17,15.66,12.34c6.17,3.16,12.89,5.46,20.17,6.88
		c7.27,1.42,14.24,2.14,20.88,2.14c13.29,0,24.52-2.3,33.7-6.88c9.17-4.59,16.77-10.92,22.78-18.98
		c6.01-8.07,10.36-17.8,13.05-29.19c2.68-11.39,4.03-23.89,4.03-37.49v-16.14h-0.95c-6.96,15.19-17.49,26.34-31.56,33.46
		c-14.08,7.12-29.03,10.68-44.85,10.68c-18.35,0-34.33-3.32-47.93-9.97c-13.61-6.64-25-15.58-34.17-26.81
		c-9.18-11.23-16.06-24.36-20.64-39.39c-4.59-15.02-6.88-30.92-6.88-47.7c0-14.55,1.9-29.5,5.7-44.85
		c3.8-15.34,10.12-29.26,18.98-41.76c8.85-12.5,20.56-22.78,35.12-30.85c14.55-8.07,32.43-12.1,53.63-12.1
		c15.5,0,29.74,3.4,42.71,10.2c12.97,6.81,23.09,17.01,30.37,30.61h0.47v-35.12h37.97v224.48
		C1482.91,443.38,1473.73,473.45,1455.38,493.38z M1403.89,383.04c9.33-5.53,16.85-12.81,22.54-21.83
		c5.69-9.02,9.88-19.22,12.58-30.61c2.68-11.39,4.03-22.78,4.03-34.17c0-10.75-1.27-21.36-3.8-31.8
		c-2.54-10.44-6.57-19.85-12.1-28.24c-5.54-8.38-12.74-15.1-21.59-20.17c-8.86-5.06-19.62-7.59-32.27-7.59
		c-12.98,0-24.05,2.45-33.22,7.36c-9.18,4.91-16.69,11.47-22.54,19.7c-5.86,8.23-10.13,17.72-12.81,28.48
		c-2.69,10.76-4.03,21.99-4.03,33.7c0,11.08,1.1,22.15,3.32,33.22c2.21,11.08,6.01,21.12,11.39,30.14
		c5.38,9.02,12.5,16.3,21.36,21.83c8.85,5.54,19.93,8.3,33.22,8.3C1383.25,391.34,1394.55,388.58,1403.89,383.04z"/>
	<path class="st11" d="M1586.37,85.23v338.86h-40.34V85.23H1586.37z"/>
	<path class="st11" d="M1866.37,423.14c-6.96,4.11-16.61,6.17-28.95,6.17c-10.44,0-18.75-2.93-24.92-8.78
		c-6.17-5.85-9.25-15.42-9.25-28.71c-11.08,13.29-23.97,22.86-38.68,28.71c-14.71,5.85-30.61,8.78-47.7,8.78
		c-11.08,0-21.59-1.27-31.56-3.8c-9.97-2.53-18.59-6.48-25.87-11.87c-7.28-5.38-13.05-12.41-17.32-21.12
		c-4.27-8.7-6.41-19.22-6.41-31.56c0-13.92,2.37-25.31,7.12-34.17c4.75-8.85,10.99-16.05,18.75-21.59
		c7.75-5.53,16.61-9.73,26.58-12.58c9.97-2.85,20.17-5.22,30.61-7.12c11.07-2.21,21.59-3.87,31.56-4.98
		c9.97-1.11,18.75-2.69,26.34-4.75c7.59-2.05,13.6-5.06,18.03-9.02c4.43-3.95,6.64-9.73,6.64-17.32c0-8.85-1.66-15.97-4.98-21.36
		c-3.32-5.38-7.59-9.49-12.81-12.34c-5.22-2.85-11.08-4.75-17.56-5.69c-6.49-0.95-12.9-1.42-19.22-1.42
		c-17.08,0-31.32,3.25-42.71,9.73c-11.39,6.49-17.56,18.75-18.51,36.78h-40.34c0.63-15.19,3.8-28,9.49-38.44
		c5.69-10.44,13.29-18.9,22.78-25.39c9.49-6.48,20.33-11.15,32.51-14c12.18-2.85,25.23-4.27,39.15-4.27
		c11.07,0,22.07,0.79,32.98,2.37c10.92,1.58,20.8,4.81,29.66,9.71c8.85,4.89,15.97,11.76,21.36,20.6
		c5.38,8.84,8.07,20.36,8.07,34.56v125.98c0,9.48,0.55,16.42,1.66,20.84c1.11,4.42,4.82,6.63,11.15,6.63c3.48,0,7.59-0.63,12.34-1.9
		V423.14z M1800.87,297.37c-5.07,3.78-11.71,6.53-19.93,8.27c-8.23,1.74-16.85,3.15-25.87,4.25c-9.02,1.1-18.12,2.37-27.29,3.78
		c-9.18,1.42-17.4,3.7-24.68,6.84c-7.28,3.14-13.21,7.63-17.8,13.46c-4.59,5.83-6.88,13.78-6.88,23.85c0,6.61,1.34,12.2,4.03,16.77
		c2.68,4.57,6.17,8.27,10.44,11.1s9.25,4.88,14.95,6.14c5.7,1.26,11.7,1.88,18.04,1.88c13.29,0,24.68-1.81,34.17-5.43
		c9.49-3.62,17.24-8.19,23.26-13.7c6.01-5.51,10.44-11.49,13.29-17.95c2.85-6.45,4.27-12.52,4.27-18.18V297.37z"/>
	<path class="st11" d="M1941.82,178.72v38.92h0.95c16.77-29.74,43.34-44.61,79.73-44.61c16.14,0,29.58,2.22,40.34,6.64
		c10.75,4.43,19.46,10.6,26.1,18.51c6.64,7.91,11.31,17.32,14,28.24c2.68,10.92,4.03,23.02,4.03,36.31v161.36h-40.34V257.98
		c0-15.19-4.43-27.21-13.29-36.07c-8.86-8.85-21.04-13.29-36.54-13.29c-12.34,0-23.02,1.9-32.03,5.69
		c-9.02,3.8-16.54,9.18-22.54,16.14c-6.01,6.96-10.52,15.11-13.53,24.44c-3.01,9.34-4.51,19.54-4.51,30.61v138.58h-40.34V178.72
		H1941.82z"/>
	<path class="st11" d="M2314.38,221.44c-10.13-8.54-23.73-12.81-40.81-12.81c-14.56,0-26.74,2.69-36.54,8.07
		c-9.81,5.38-17.64,12.5-23.49,21.36c-5.86,8.86-10.05,19.07-12.58,30.61c-2.54,11.55-3.8,23.49-3.8,35.83
		c0,11.39,1.34,22.47,4.03,33.22c2.68,10.76,6.88,20.33,12.58,28.71c5.7,8.39,13.12,15.11,22.31,20.17
		c9.17,5.07,20.09,7.59,32.75,7.59c19.93,0,35.51-5.22,46.75-15.66c11.23-10.44,18.11-25.15,20.64-44.14h41.29
		c-4.43,30.37-15.74,53.79-33.93,70.24c-18.2,16.46-42.95,24.68-74.27,24.68c-18.67,0-35.2-3.01-49.59-9.02
		c-14.4-6.01-26.42-14.55-36.07-25.63c-9.66-11.07-16.93-24.28-21.83-39.63c-4.91-15.34-7.36-32.19-7.36-50.54
		c0-18.35,2.37-35.51,7.12-51.49c4.75-15.97,11.94-29.9,21.59-41.76c9.65-11.86,21.75-21.19,36.31-28
		c14.55-6.8,31.48-10.2,50.78-10.2c13.92,0,26.97,1.66,39.15,4.98c12.18,3.32,22.94,8.47,32.27,15.42
		c9.33,6.96,17,15.74,23.02,26.34c6.01,10.6,9.8,23.18,11.39,37.73h-41.76C2331.14,242.01,2324.5,229.98,2314.38,221.44z"/>
	<path class="st11" d="M2596.28,408.43c-18.35,13.93-41.45,20.88-69.29,20.88c-19.62,0-36.62-3.17-51.02-9.49
		c-14.4-6.33-26.5-15.19-36.31-26.58c-9.81-11.39-17.17-24.99-22.07-40.81c-4.91-15.82-7.67-33.06-8.31-51.73
		c0-18.67,2.85-35.75,8.54-51.26c5.7-15.5,13.68-28.95,23.97-40.34c10.28-11.39,22.46-20.24,36.54-26.58
		c14.07-6.33,29.5-9.49,46.27-9.49c21.83,0,39.94,4.51,54.34,13.53c14.39,9.02,25.94,20.49,34.64,34.41
		c8.7,13.93,14.71,29.11,18.04,45.56c3.32,16.46,4.66,32.12,4.03,46.98H2452c-0.32,10.76,0.95,20.96,3.8,30.61
		c2.85,9.66,7.43,18.2,13.76,25.63c6.33,7.44,14.39,13.37,24.2,17.8c9.8,4.43,21.36,6.64,34.65,6.64c17.08,0,31.08-3.95,42-11.86
		c10.92-7.91,18.11-19.93,21.59-36.07h39.87C2626.49,373.78,2614.62,394.51,2596.28,408.43z M2586.55,250.86
		c-3.64-8.54-8.54-15.9-14.71-22.07s-13.45-11.07-21.83-14.71c-8.39-3.63-17.64-5.46-27.76-5.46c-10.44,0-19.86,1.82-28.24,5.46
		c-8.39,3.64-15.59,8.62-21.59,14.95c-6.01,6.33-10.76,13.69-14.24,22.07c-3.49,8.39-5.54,17.32-6.17,26.81h140.95
		C2592.32,268.42,2590.18,259.41,2586.55,250.86z"/>
	<path class="st11" d="M2713.97,178.72v51.73h0.95c9.8-19.93,21.83-34.65,36.07-44.14c14.24-9.49,32.27-13.92,54.1-13.29v42.71
		c-16.14,0-29.9,2.22-41.29,6.64c-11.39,4.43-20.57,10.92-27.53,19.46c-6.96,8.54-12.03,18.91-15.19,31.09
		c-3.17,12.18-4.75,26.18-4.75,42v109.16H2676V178.72H2713.97z"/>
</g>
</svg>
